<svg xmlns="http://www.w3.org/2000/svg" viewBox="0 0 600 800" role="img" aria-label="Autor espiritual — imagem simbólica">
  <defs>
    <linearGradient id="bg" x1="0" y1="0" x2="0" y2="1">
      <stop offset="0" stop-color="#F0EDF8"></stop>
      <stop offset="0.55" stop-color="#E7E2F3"></stop>
      <stop offset="1" stop-color="#DDD6EE"></stop>
    </linearGradient>
    <radialGradient id="glow" cx="0.5" cy="0.5" r="0.5">
      <stop offset="0" stop-color="#FFFFFF" stop-opacity="0.95"></stop>
      <stop offset="0.35" stop-color="#FFF3D9" stop-opacity="0.55"></stop>
      <stop offset="0.7" stop-color="#F2C55C" stop-opacity="0.14"></stop>
      <stop offset="1" stop-color="#F2C55C" stop-opacity="0"></stop>
    </radialGradient>
    <radialGradient id="goldCorner" cx="0.5" cy="0.5" r="0.5">
      <stop offset="0" stop-color="#F2A81E" stop-opacity="0.18"></stop>
      <stop offset="1" stop-color="#F2A81E" stop-opacity="0"></stop>
    </radialGradient>
    <linearGradient id="beam" x1="0" y1="0" x2="0" y2="1">
      <stop offset="0" stop-color="#FFFFFF" stop-opacity="0"></stop>
      <stop offset="0.5" stop-color="#FFFFFF" stop-opacity="0.35"></stop>
      <stop offset="1" stop-color="#FFFFFF" stop-opacity="0"></stop>
    </linearGradient>
  </defs>
  <rect width="600" height="800" fill="url(#bg)"></rect>
  <circle cx="520" cy="70" r="260" fill="url(#goldCorner)"></circle>
  
  <path d="M0,640 C130,600 260,672 400,636 C490,613 550,628 600,616 L600,800 L0,800 Z" fill="#4E4483" opacity="0.07"></path>
  <path d="M0,690 C150,650 300,716 450,678 C520,660 570,672 600,664 L600,800 L0,800 Z" fill="#4E4483" opacity="0.10"></path>
  <path d="M0,742 C170,706 330,760 600,714 L600,800 L0,800 Z" fill="#3a3266" opacity="0.12"></path>
  
  <rect x="288" y="120" width="24" height="440" rx="12" fill="url(#beam)"></rect>
  
  <circle cx="300" cy="330" r="168" fill="none" stroke="#4E4483" stroke-opacity="0.10" stroke-width="1.5"></circle>
  <circle cx="300" cy="330" r="122" fill="none" stroke="#F2A81E" stroke-opacity="0.28" stroke-width="1.5"></circle>
  <circle cx="300" cy="330" r="78" fill="none" stroke="#F2A81E" stroke-opacity="0.45" stroke-width="2"></circle>
  
  <circle cx="300" cy="330" r="150" fill="url(#glow)"></circle>
  <circle cx="300" cy="330" r="14" fill="#FFFDF6"></circle>
  <circle cx="300" cy="330" r="22" fill="none" stroke="#FFF3D9" stroke-opacity="0.8" stroke-width="3"></circle>
  
  <g fill="#F2C55C">
    <circle cx="300" cy="216" r="5" opacity="0.85"></circle>
    <circle cx="268" cy="176" r="3.4" opacity="0.6"></circle>
    <circle cx="332" cy="158" r="4" opacity="0.7"></circle>
    <circle cx="296" cy="120" r="2.8" opacity="0.45"></circle>
    <circle cx="352" cy="102" r="2.4" opacity="0.35"></circle>
    <circle cx="248" cy="112" r="2.4" opacity="0.35"></circle>
  </g>
  <g fill="#8f83d6">
    <circle cx="196" cy="268" r="3.4" opacity="0.5"></circle>
    <circle cx="410" cy="296" r="3.8" opacity="0.5"></circle>
    <circle cx="158" cy="392" r="2.8" opacity="0.4"></circle>
    <circle cx="440" cy="410" r="2.6" opacity="0.4"></circle>
    <circle cx="372" cy="212" r="2.6" opacity="0.45"></circle>
    <circle cx="222" cy="204" r="2.4" opacity="0.4"></circle>
  </g>
  <g fill="#FFFFFF">
    <circle cx="300" cy="452" r="4" opacity="0.7"></circle>
    <circle cx="252" cy="500" r="2.8" opacity="0.5"></circle>
    <circle cx="352" cy="512" r="3" opacity="0.5"></circle>
  </g>
</svg>